<svg width="63.916" height="62.065" viewBox="0 0 63.916 62.065" xmlns="http://www.w3.org/2000/svg"><g id="svgGroup" stroke-linecap="round" fill-rule="evenodd" font-size="9pt" stroke="#ffd700" stroke-width="0.25mm" fill="#115173" style="stroke:#ffd700;stroke-width:0.25mm;fill:#115173"><path d="M 23.633 41.751 L 19.434 30.618 A 269.019 269.019 0 0 0 18.165 27.494 Q 14.01 17.456 12.784 17.291 A 0.301 0.301 0 0 0 12.744 17.288 Q 11.377 17.288 8.789 34.622 A 350.522 350.522 0 0 0 7.861 41.11 A 273.266 273.266 0 0 0 7.129 47.098 Q 6.494 52.835 5.811 55.716 Q 5.06 59.013 3.632 60.106 A 2.538 2.538 0 0 1 2.051 60.647 A 1.714 1.714 0 0 1 0.414 59.67 Q 0.033 58.937 0.003 57.654 A 9.591 9.591 0 0 1 0 57.425 A 53.998 53.998 0 0 1 0.139 53.637 A 68.068 68.068 0 0 1 0.439 50.467 Q 0.851 46.971 1.433 33.237 A 1551.185 1551.185 0 0 0 1.514 31.302 A 1311.489 1311.489 0 0 0 1.791 24.103 Q 2.131 14.577 2.148 9.242 A 173.007 173.007 0 0 0 2.148 8.694 A 17.913 17.913 0 0 1 2.368 5.751 Q 3.274 0.345 7.91 0.345 A 3.972 3.972 0 0 1 9.862 0.916 Q 11.284 1.718 12.849 3.647 A 26.893 26.893 0 0 1 14.355 5.716 A 34.157 34.157 0 0 1 15.251 7.133 Q 17.437 10.744 22.806 20.598 A 1420.077 1420.077 0 0 1 23.755 22.342 A 712.967 712.967 0 0 0 25.533 25.598 Q 31.381 36.233 31.958 36.233 Q 32.617 36.233 39.355 23.88 A 627.663 627.663 0 0 1 42.487 18.203 Q 46.41 11.186 48.701 7.629 A 60.453 60.453 0 0 1 49.219 6.839 Q 53.809 0.003 57.227 0.003 Q 61.043 0.003 62.495 4.338 A 13.088 13.088 0 0 1 62.793 5.374 A 16.434 16.434 0 0 1 63.097 7.127 Q 63.467 10.031 63.55 15.568 A 229.372 229.372 0 0 1 63.574 18.997 L 63.672 23.929 L 63.672 28.811 L 63.281 45.511 Q 63.281 47.23 63.396 50.066 A 276.718 276.718 0 0 0 63.477 51.907 L 63.721 55.96 L 63.916 57.913 Q 63.916 60.731 62.723 61.636 A 2.242 2.242 0 0 1 61.328 62.063 L 61.279 62.063 Q 58.008 62.063 56.738 54.983 A 27.575 27.575 0 0 1 56.518 53.342 Q 56 48.692 55.127 34.549 Q 54.11 18.063 53.005 17.19 A 0.199 0.199 0 0 0 52.881 17.141 A 1.413 1.413 0 0 0 52.002 17.637 Q 50.257 19.325 46.83 26.766 A 179.355 179.355 0 0 0 45.752 29.153 A 2076.564 2076.564 0 0 1 43.731 33.713 Q 37.409 47.926 36.158 50.05 A 4.268 4.268 0 0 1 36.035 50.247 Q 33.838 53.518 31.396 53.518 A 3.697 3.697 0 0 1 29.076 52.669 Q 28.484 52.205 27.937 51.489 A 10.817 10.817 0 0 1 27.1 50.198 Q 26.323 48.782 23.964 42.62 A 429.279 429.279 0 0 1 23.633 41.751 Z" vector-effect="non-scaling-stroke"/></g></svg>